<svg xmlns="http://www.w3.org/2000/svg" xmlns:xlink="http://www.w3.org/1999/xlink" width="1080" zoomAndPan="magnify" viewBox="0 0 810 809.999993" height="1080" preserveAspectRatio="xMidYMid meet" version="1.0"><defs><clipPath id="c26d4f2528"><path d="M 16.566406 0 L 789.066406 0 L 789.066406 772.5 L 16.566406 772.5 Z M 16.566406 0 " clip-rule="nonzero"/></clipPath><clipPath id="6d0bd56ff8"><path d="M 51.332031 32.160156 L 754.082031 32.160156 L 754.082031 734.910156 L 51.332031 734.910156 Z M 51.332031 32.160156 " clip-rule="nonzero"/></clipPath></defs><g clip-path="url(#c26d4f2528)"><path fill="#095d62" d="M 789.066406 386.25 C 789.066406 392.570312 788.910156 398.890625 788.601562 405.203125 C 788.292969 411.515625 787.828125 417.816406 787.207031 424.109375 C 786.585938 430.398438 785.8125 436.671875 784.886719 442.925781 C 783.957031 449.175781 782.878906 455.402344 781.644531 461.605469 C 780.410156 467.804688 779.027344 473.96875 777.492188 480.101562 C 775.957031 486.234375 774.269531 492.324219 772.433594 498.371094 C 770.601562 504.421875 768.617188 510.421875 766.488281 516.375 C 764.359375 522.324219 762.085938 528.222656 759.664062 534.0625 C 757.246094 539.902344 754.683594 545.679688 751.984375 551.394531 C 749.28125 557.105469 746.4375 562.753906 743.457031 568.328125 C 740.480469 573.902344 737.363281 579.398438 734.113281 584.820312 C 730.863281 590.242188 727.484375 595.582031 723.972656 600.839844 C 720.460938 606.09375 716.820312 611.261719 713.054688 616.339844 C 709.289062 621.417969 705.402344 626.398438 701.390625 631.285156 C 697.382812 636.171875 693.253906 640.957031 689.007812 645.640625 C 684.765625 650.324219 680.40625 654.898438 675.9375 659.371094 C 671.46875 663.839844 666.890625 668.195312 662.207031 672.441406 C 657.523438 676.6875 652.738281 680.816406 647.851562 684.824219 C 642.964844 688.835938 637.984375 692.722656 632.90625 696.488281 C 627.828125 700.253906 622.660156 703.894531 617.40625 707.40625 C 612.148438 710.917969 606.8125 714.296875 601.390625 717.546875 C 595.96875 720.796875 590.46875 723.910156 584.894531 726.890625 C 579.320312 729.871094 573.675781 732.714844 567.960938 735.414062 C 562.246094 738.117188 556.46875 740.679688 550.628906 743.097656 C 544.789062 745.515625 538.890625 747.792969 532.941406 749.921875 C 526.988281 752.050781 520.988281 754.03125 514.9375 755.867188 C 508.890625 757.703125 502.800781 759.386719 496.667969 760.925781 C 490.535156 762.460938 484.371094 763.84375 478.171875 765.078125 C 471.96875 766.3125 465.746094 767.390625 459.492188 768.320312 C 453.238281 769.246094 446.96875 770.019531 440.675781 770.640625 C 434.386719 771.257812 428.082031 771.722656 421.769531 772.035156 C 415.457031 772.34375 409.136719 772.5 402.816406 772.5 C 396.496094 772.5 390.179688 772.34375 383.863281 772.035156 C 377.550781 771.722656 371.25 771.257812 364.957031 770.640625 C 358.667969 770.019531 352.394531 769.246094 346.140625 768.320312 C 339.890625 767.390625 333.664062 766.3125 327.464844 765.078125 C 321.261719 763.84375 315.097656 762.460938 308.964844 760.925781 C 302.832031 759.386719 296.742188 757.703125 290.695312 755.867188 C 284.644531 754.03125 278.644531 752.050781 272.691406 749.921875 C 266.742188 747.792969 260.84375 745.515625 255.003906 743.097656 C 249.164062 740.679688 243.386719 738.117188 237.671875 735.414062 C 231.960938 732.714844 226.316406 729.871094 220.738281 726.890625 C 215.164062 723.910156 209.667969 720.796875 204.246094 717.546875 C 198.824219 714.296875 193.484375 710.917969 188.226562 707.40625 C 182.972656 703.894531 177.804688 700.253906 172.726562 696.488281 C 167.652344 692.722656 162.667969 688.835938 157.78125 684.824219 C 152.894531 680.816406 148.109375 676.6875 143.425781 672.441406 C 138.742188 668.195312 134.167969 663.839844 129.695312 659.371094 C 125.226562 654.898438 120.871094 650.324219 116.625 645.640625 C 112.378906 640.957031 108.25 636.171875 104.242188 631.285156 C 100.230469 626.398438 96.34375 621.414062 92.578125 616.339844 C 88.8125 611.261719 85.171875 606.09375 81.660156 600.839844 C 78.148438 595.582031 74.769531 590.242188 71.519531 584.820312 C 68.269531 579.398438 65.15625 573.902344 62.175781 568.328125 C 59.195312 562.753906 56.355469 557.105469 53.652344 551.394531 C 50.949219 545.679688 48.386719 539.902344 45.96875 534.0625 C 43.550781 528.222656 41.273438 522.324219 39.144531 516.375 C 37.015625 510.421875 35.035156 504.421875 33.199219 498.371094 C 31.363281 492.324219 29.679688 486.234375 28.140625 480.101562 C 26.605469 473.96875 25.222656 467.804688 23.988281 461.601562 C 22.753906 455.402344 21.675781 449.175781 20.746094 442.925781 C 19.820312 436.671875 19.046875 430.398438 18.425781 424.109375 C 17.808594 417.816406 17.34375 411.515625 17.03125 405.203125 C 16.722656 398.890625 16.566406 392.570312 16.566406 386.25 C 16.566406 379.929688 16.722656 373.609375 17.03125 367.296875 C 17.34375 360.984375 17.808594 354.683594 18.425781 348.390625 C 19.046875 342.101562 19.820312 335.828125 20.746094 329.574219 C 21.675781 323.324219 22.753906 317.097656 23.988281 310.894531 C 25.222656 304.695312 26.605469 298.53125 28.140625 292.398438 C 29.679688 286.265625 31.363281 280.175781 33.199219 274.128906 C 35.035156 268.078125 37.015625 262.078125 39.144531 256.125 C 41.273438 250.175781 43.550781 244.277344 45.96875 238.4375 C 48.386719 232.597656 50.949219 226.820312 53.652344 221.105469 C 56.355469 215.390625 59.195312 209.746094 62.175781 204.171875 C 65.15625 198.597656 68.269531 193.101562 71.519531 187.679688 C 74.769531 182.253906 78.148438 176.917969 81.660156 171.660156 C 85.171875 166.40625 88.8125 161.238281 92.578125 156.160156 C 96.34375 151.082031 100.230469 146.101562 104.242188 141.214844 C 108.25 136.328125 112.378906 131.542969 116.625 126.859375 C 120.871094 122.175781 125.226562 117.601562 129.695312 113.128906 C 134.167969 108.660156 138.742188 104.300781 143.425781 100.058594 C 148.109375 95.8125 152.894531 91.683594 157.78125 87.675781 C 162.667969 83.664062 167.652344 79.777344 172.726562 76.011719 C 177.804688 72.246094 182.972656 68.605469 188.226562 65.09375 C 193.484375 61.582031 198.824219 58.203125 204.246094 54.953125 C 209.667969 51.703125 215.164062 48.585938 220.738281 45.609375 C 226.316406 42.628906 231.960938 39.785156 237.671875 37.085938 C 243.386719 34.382812 249.164062 31.820312 255.003906 29.402344 C 260.84375 26.984375 266.742188 24.707031 272.691406 22.578125 C 278.644531 20.449219 284.644531 18.464844 290.695312 16.632812 C 296.742188 14.796875 302.832031 13.113281 308.964844 11.574219 C 315.097656 10.039062 321.261719 8.65625 327.464844 7.421875 C 333.664062 6.1875 339.890625 5.109375 346.140625 4.179688 C 352.394531 3.253906 358.667969 2.480469 364.957031 1.859375 C 371.25 1.242188 377.550781 0.777344 383.863281 0.464844 C 390.179688 0.15625 396.496094 0 402.816406 0 C 409.136719 0 415.457031 0.15625 421.769531 0.464844 C 428.082031 0.777344 434.386719 1.242188 440.675781 1.859375 C 446.96875 2.480469 453.238281 3.253906 459.492188 4.179688 C 465.746094 5.109375 471.96875 6.1875 478.171875 7.421875 C 484.371094 8.65625 490.535156 10.039062 496.667969 11.574219 C 502.800781 13.113281 508.890625 14.796875 514.9375 16.632812 C 520.988281 18.464844 526.988281 20.449219 532.941406 22.578125 C 538.890625 24.707031 544.789062 26.984375 550.628906 29.402344 C 556.46875 31.820312 562.246094 34.382812 567.960938 37.085938 C 573.675781 39.785156 579.320312 42.628906 584.894531 45.609375 C 590.46875 48.585938 595.96875 51.703125 601.390625 54.953125 C 606.8125 58.203125 612.148438 61.582031 617.40625 65.09375 C 622.660156 68.605469 627.828125 72.246094 632.90625 76.011719 C 637.984375 79.777344 642.964844 83.664062 647.851562 87.675781 C 652.738281 91.683594 657.523438 95.8125 662.207031 100.058594 C 666.890625 104.300781 671.46875 108.660156 675.9375 113.128906 C 680.40625 117.601562 684.765625 122.175781 689.007812 126.859375 C 693.253906 131.542969 697.382812 136.328125 701.390625 141.214844 C 705.402344 146.101562 709.289062 151.082031 713.054688 156.160156 C 716.820312 161.238281 720.460938 166.40625 723.972656 171.660156 C 727.484375 176.917969 730.863281 182.253906 734.113281 187.679688 C 737.363281 193.101562 740.480469 198.597656 743.457031 204.171875 C 746.4375 209.746094 749.28125 215.390625 751.984375 221.105469 C 754.683594 226.820312 757.246094 232.597656 759.664062 238.4375 C 762.085938 244.277344 764.359375 250.175781 766.488281 256.125 C 768.617188 262.078125 770.601562 268.078125 772.433594 274.128906 C 774.269531 280.175781 775.957031 286.265625 777.492188 292.398438 C 779.027344 298.53125 780.410156 304.695312 781.644531 310.894531 C 782.878906 317.097656 783.957031 323.324219 784.886719 329.574219 C 785.8125 335.828125 786.585938 342.101562 787.207031 348.390625 C 787.828125 354.683594 788.292969 360.984375 788.601562 367.296875 C 788.910156 373.609375 789.066406 379.929688 789.066406 386.25 Z M 789.066406 386.25 " fill-opacity="1" fill-rule="nonzero"/></g><path fill="#fadb41" d="M 413.222656 160.714844 C 350.359375 162.078125 279.472656 176.011719 214.964844 270.144531 C 144.125 372.527344 188.828125 525.074219 251.054688 575.625 L 268.582031 554.238281 C 223.914062 508.917969 169.089844 391.527344 238.289062 284.328125 C 288.054688 200.058594 415.457031 149.046875 514.902344 205.050781 L 392.988281 367.535156 C 317.75 313.546875 275.640625 323.234375 241.210938 369.367188 C 223.386719 401.234375 235.433594 437.0625 259.269531 458.1875 C 310.75 493.238281 355.203125 465.710938 377.566406 425.398438 L 357.953125 410.308594 C 321.894531 464.46875 296.226562 452.546875 271.050781 437.628906 C 239.316406 399.953125 257.21875 357.828125 304.167969 352.421875 C 325.617188 350.9375 353.347656 365.875 409.773438 411.871094 L 441.144531 434.1875 C 493.335938 465.941406 503.027344 475.371094 529.183594 477.523438 C 529.183594 477.523438 544.515625 481.382812 565.957031 471.433594 C 576.039062 466.753906 590.207031 455.160156 598.078125 432.480469 C 613.382812 392.402344 595.125 362.957031 589.757812 356.058594 C 560.96875 319.050781 520.984375 328.292969 513.894531 330.765625 C 507.941406 332.84375 510.347656 331.777344 504.53125 334.453125 C 504.375 334.527344 497.78125 338.089844 493.179688 342.265625 C 487.574219 347.351562 489.390625 345.140625 481.589844 353.15625 C 465.386719 369.800781 460.542969 376.765625 460.542969 376.765625 L 477.015625 390.3125 C 500.542969 366.382812 522.621094 336.613281 557.238281 356.988281 C 588.722656 379.980469 587.4375 413.71875 573.269531 432.566406 C 559.707031 456.058594 544.992188 459.921875 522.671875 453.976562 C 502.78125 448.679688 464.894531 417.003906 413.4375 381.5 L 547.683594 195.382812 C 542.152344 191.953125 518.640625 182.105469 510.183594 178.585938 C 485.035156 168.121094 450.941406 159.898438 413.222656 160.714844 Z M 625.628906 442.050781 C 625.609375 442.160156 625.578125 442.261719 625.554688 442.367188 L 625.679688 442.292969 Z M 625.628906 442.050781 " fill-opacity="1" fill-rule="nonzero"/><g clip-path="url(#6d0bd56ff8)"><path stroke-linecap="butt" transform="matrix(43.921872, 0, 0, 43.921872, 51.330488, 32.160996)" fill="none" stroke-linejoin="miter" d="M 15.484028 8.012966 C 15.484028 8.133742 15.481004 8.254428 15.475134 8.375026 C 15.469175 8.495624 15.460282 8.616043 15.448453 8.736196 C 15.436625 8.856349 15.421861 8.976147 15.404163 9.095588 C 15.386464 9.215029 15.365831 9.333937 15.342263 9.452401 C 15.318695 9.570775 15.292192 9.688615 15.262932 9.805745 C 15.233583 9.922874 15.201388 10.039202 15.166347 10.154731 C 15.131217 10.270259 15.093419 10.384898 15.052686 10.498559 C 15.012042 10.612219 14.968553 10.724902 14.922395 10.836428 C 14.876148 10.947954 14.827233 11.058324 14.77565 11.167538 C 14.723978 11.276662 14.669727 11.384453 14.612807 11.490999 C 14.555888 11.597456 14.49639 11.70249 14.434312 11.806012 C 14.372235 11.909622 14.307667 12.011632 14.240609 12.111952 C 14.173462 12.212362 14.104003 12.311081 14.032053 12.40811 C 13.960104 12.505051 13.885842 12.600213 13.809268 12.693596 C 13.732693 12.78689 13.653807 12.878317 13.572697 12.967787 C 13.491676 13.057257 13.408432 13.144681 13.323053 13.23006 C 13.237674 13.315439 13.150249 13.398683 13.060779 13.479704 C 12.97131 13.560814 12.879883 13.639701 12.786589 13.716275 C 12.693206 13.792849 12.598044 13.867111 12.501103 13.93906 C 12.404074 14.01101 12.305354 14.080469 12.205034 14.147616 C 12.104625 14.214674 12.002615 14.279242 11.899004 14.341319 C 11.795482 14.403397 11.690449 14.462895 11.583992 14.519815 C 11.477446 14.576734 11.369655 14.630985 11.26053 14.682657 C 11.151317 14.73424 11.040947 14.783155 10.92942 14.829402 C 10.817894 14.87556 10.705301 14.91905 10.591551 14.959694 C 10.477891 15.000427 10.363252 15.038224 10.247723 15.073265 C 10.132195 15.108395 10.015866 15.14059 9.898737 15.16985 C 9.781608 15.199199 9.663768 15.225702 9.545393 15.24927 C 9.42693 15.27275 9.308022 15.293383 9.188581 15.31117 C 9.069139 15.328868 8.949342 15.343632 8.829189 15.35546 C 8.709036 15.367289 8.588616 15.376183 8.468019 15.382141 C 8.347421 15.388011 8.226734 15.391035 8.105959 15.391035 C 7.985272 15.391035 7.864586 15.388011 7.743988 15.382141 C 7.62339 15.376183 7.502971 15.367289 7.382818 15.35546 C 7.262665 15.343632 7.142867 15.328868 7.023426 15.31117 C 6.903984 15.293383 6.785076 15.27275 6.666613 15.24927 C 6.548239 15.225702 6.430398 15.199199 6.313269 15.16985 C 6.19614 15.14059 6.079811 15.108395 5.964283 15.073265 C 5.848755 15.038224 5.734116 15.000427 5.620455 14.959694 C 5.506706 14.91905 5.394112 14.87556 5.282586 14.829402 C 5.170971 14.783155 5.06069 14.73424 4.951476 14.682657 C 4.842351 14.630985 4.734561 14.576734 4.628015 14.519815 C 4.521558 14.462895 4.416524 14.403397 4.312913 14.341319 C 4.209392 14.279242 4.107382 14.214674 4.006972 14.147616 C 3.906563 14.080469 3.807933 14.01101 3.710903 13.93906 C 3.613963 13.867111 3.518801 13.792849 3.425418 13.716275 C 3.332124 13.639701 3.240697 13.560814 3.151227 13.479704 C 3.061757 13.398683 2.974333 13.315439 2.888954 13.23006 C 2.803575 13.144681 2.720331 13.057257 2.639221 12.967787 C 2.5582 12.878317 2.479313 12.78689 2.402739 12.693596 C 2.326165 12.600213 2.251903 12.505051 2.179953 12.40811 C 2.108004 12.311081 2.038545 12.212362 1.971398 12.111952 C 1.90434 12.011632 1.839772 11.909622 1.777694 11.806012 C 1.715617 11.70249 1.656118 11.597456 1.599199 11.490999 C 1.54228 11.384453 1.488029 11.276662 1.436357 11.167538 C 1.384774 11.058324 1.335859 10.947954 1.289612 10.836428 C 1.243365 10.724902 1.199964 10.612219 1.15932 10.498559 C 1.118587 10.384898 1.080789 10.270259 1.04566 10.154731 C 1.010619 10.039202 0.978424 9.922874 0.949075 9.805745 C 0.919815 9.688615 0.893312 9.570775 0.869743 9.452401 C 0.846175 9.333937 0.825542 9.215029 0.807844 9.095588 C 0.790145 8.976147 0.775382 8.856349 0.763554 8.736196 C 0.751725 8.616043 0.742831 8.495624 0.736873 8.375026 C 0.731003 8.254428 0.727979 8.133742 0.727979 8.012966 C 0.727979 7.892279 0.731003 7.771593 0.736873 7.650995 C 0.742831 7.530398 0.751725 7.409978 0.763554 7.289825 C 0.775382 7.169672 0.790145 7.049875 0.807844 6.930433 C 0.825542 6.810992 0.846175 6.692084 0.869743 6.573621 C 0.893312 6.455157 0.919815 6.337406 0.949075 6.220277 C 0.978424 6.103147 1.010619 5.986819 1.04566 5.87129 C 1.080789 5.755762 1.118587 5.641123 1.15932 5.527463 C 1.199964 5.413713 1.243365 5.30112 1.289612 5.189593 C 1.335859 5.077978 1.384774 4.967608 1.436357 4.858484 C 1.488029 4.749359 1.54228 4.641479 1.599199 4.535022 C 1.656118 4.428565 1.715617 4.323531 1.777694 4.219921 C 1.839772 4.116399 1.90434 4.014389 1.971398 3.91398 C 2.038545 3.813571 2.108004 3.71494 2.179953 3.617911 C 2.251903 3.52097 2.326165 3.425808 2.402739 3.332425 C 2.479313 3.239131 2.5582 3.147704 2.639221 3.058234 C 2.720331 2.968764 2.803575 2.88134 2.888954 2.795961 C 2.974333 2.710582 3.061757 2.627338 3.151227 2.546228 C 3.240697 2.465207 3.332124 2.38632 3.425418 2.309746 C 3.518801 2.233172 3.613963 2.158821 3.710903 2.086961 C 3.807933 2.015011 3.906563 1.945463 4.006972 1.878405 C 4.107382 1.811347 4.209392 1.746779 4.312913 1.684702 C 4.416524 1.622624 4.521558 1.563126 4.628015 1.506207 C 4.734561 1.449287 4.842351 1.395036 4.951476 1.343364 C 5.06069 1.291781 5.170971 1.242866 5.282586 1.196619 C 5.394112 1.150372 5.506706 1.106971 5.620455 1.066327 C 5.734116 1.025595 5.848755 0.987708 5.964283 0.952667 C 6.079811 0.917626 6.19614 0.885431 6.313269 0.856082 C 6.430398 0.826733 6.548239 0.800319 6.666613 0.776751 C 6.785076 0.753183 6.903984 0.732549 7.023426 0.714851 C 7.142867 0.697153 7.262665 0.682389 7.382818 0.670561 C 7.502971 0.658732 7.62339 0.649839 7.743988 0.64388 C 7.864586 0.637921 7.985272 0.634986 8.105959 0.634986 C 8.226734 0.634986 8.347421 0.637921 8.468019 0.64388 C 8.588616 0.649839 8.709036 0.658732 8.829189 0.670561 C 8.949342 0.682389 9.069139 0.697153 9.188581 0.714851 C 9.308022 0.732549 9.42693 0.753183 9.545393 0.776751 C 9.663768 0.800319 9.781608 0.826733 9.898737 0.856082 C 10.015866 0.885431 10.132195 0.917626 10.247723 0.952667 C 10.363252 0.987708 10.477891 1.025595 10.591551 1.066327 C 10.705301 1.106971 10.817894 1.150372 10.92942 1.196619 C 11.040947 1.242866 11.151317 1.291781 11.26053 1.343364 C 11.369655 1.395036 11.477446 1.449287 11.583992 1.506207 C 11.690449 1.563126 11.795482 1.622624 11.899004 1.684702 C 12.002615 1.746779 12.104625 1.811347 12.205034 1.878405 C 12.305354 1.945463 12.404074 2.015011 12.501103 2.086961 C 12.598044 2.158821 12.693206 2.233172 12.786589 2.309746 C 12.879883 2.38632 12.97131 2.465207 13.060779 2.546228 C 13.150249 2.627338 13.237674 2.710582 13.323053 2.795961 C 13.408432 2.88134 13.491676 2.968764 13.572697 3.058234 C 13.653807 3.147704 13.732693 3.239131 13.809268 3.332425 C 13.885842 3.425808 13.960104 3.52097 14.032053 3.617911 C 14.104003 3.71494 14.173462 3.813571 14.240609 3.91398 C 14.307667 4.014389 14.372235 4.116399 14.434312 4.219921 C 14.49639 4.323531 14.555888 4.428565 14.612807 4.535022 C 14.669727 4.641568 14.723978 4.749359 14.77565 4.858484 C 14.827233 4.967608 14.876148 5.077978 14.922395 5.189593 C 14.968553 5.30112 15.012042 5.413713 15.052686 5.527463 C 15.093419 5.641123 15.131217 5.755762 15.166347 5.87129 C 15.201388 5.986819 15.233583 6.103147 15.262932 6.220277 C 15.292192 6.337406 15.318695 6.455157 15.342263 6.573621 C 15.365831 6.692084 15.386464 6.810992 15.404163 6.930433 C 15.421861 7.049875 15.436625 7.169672 15.448453 7.289825 C 15.460282 7.409978 15.469175 7.530398 15.475134 7.650995 C 15.481004 7.771593 15.484028 7.892279 15.484028 8.012966 Z M 15.484028 8.012966 " stroke="#fadb41" stroke-width="0.562" stroke-opacity="1" stroke-miterlimit="4"/></g></svg>