<svg xmlns="http://www.w3.org/2000/svg" xmlns:xlink="http://www.w3.org/1999/xlink" width="1080" zoomAndPan="magnify" viewBox="0 0 810 809.999993" height="1080" preserveAspectRatio="xMidYMid meet" version="1.0"><defs><g/><clipPath id="447ba90adf"><path d="M 49.066406 265.546875 L 325.816406 265.546875 L 325.816406 542.296875 L 49.066406 542.296875 Z M 49.066406 265.546875 " clip-rule="nonzero"/></clipPath><clipPath id="a7a49dc812"><path d="M 377.960938 417.175781 L 456.710938 417.175781 L 456.710938 513.925781 L 377.960938 513.925781 Z M 377.960938 417.175781 " clip-rule="nonzero"/></clipPath><clipPath id="c672de93d4"><path d="M 589 480 L 638 480 L 638 507.449219 L 589 507.449219 Z M 589 480 " clip-rule="nonzero"/></clipPath><clipPath id="d533b7c6c4"><path d="M 596 420 L 659.398438 420 L 659.398438 488 L 596 488 Z M 596 420 " clip-rule="nonzero"/></clipPath><clipPath id="ed5e31cf94"><path d="M 602 412.949219 L 625 412.949219 L 625 426 L 602 426 Z M 602 412.949219 " clip-rule="nonzero"/></clipPath><clipPath id="08a21bc0ed"><path d="M 367.808594 270 L 466.808594 270 L 466.808594 341 L 367.808594 341 Z M 367.808594 270 " clip-rule="nonzero"/></clipPath><clipPath id="148fc499cf"><path d="M 573.203125 265.546875 L 645.203125 265.546875 L 645.203125 337.546875 L 573.203125 337.546875 Z M 573.203125 265.546875 " clip-rule="nonzero"/></clipPath></defs><path fill="#fadb41" d="M 191.582031 316.171875 C 166.824219 316.710938 138.910156 322.195312 113.507812 359.265625 C 85.609375 399.585938 103.210938 459.660156 127.71875 479.570312 L 134.621094 471.144531 C 117.03125 453.296875 95.441406 407.070312 122.691406 364.851562 C 142.289062 331.667969 192.460938 311.578125 231.625 333.632812 L 183.613281 397.621094 C 153.984375 376.359375 137.402344 380.175781 123.84375 398.34375 C 116.824219 410.890625 121.566406 425.003906 130.953125 433.320312 C 151.226562 447.125 168.730469 436.285156 177.539062 420.410156 L 169.816406 414.464844 C 155.617188 435.792969 145.507812 431.097656 135.59375 425.226562 C 123.09375 410.386719 130.144531 393.800781 148.636719 391.667969 C 157.082031 391.085938 168.003906 396.96875 190.222656 415.082031 L 202.578125 423.871094 C 223.132812 436.375 226.949219 440.085938 237.25 440.9375 C 237.25 440.9375 243.285156 442.457031 251.730469 438.539062 C 255.699219 436.695312 261.28125 432.128906 264.378906 423.195312 C 270.40625 407.414062 263.214844 395.820312 261.101562 393.101562 C 249.765625 378.527344 234.019531 382.167969 231.226562 383.140625 C 228.882812 383.957031 229.832031 383.539062 227.539062 384.59375 C 227.476562 384.621094 224.882812 386.027344 223.070312 387.667969 C 220.863281 389.671875 221.578125 388.800781 218.503906 391.957031 C 212.125 398.515625 210.214844 401.253906 210.214844 401.253906 L 216.703125 406.589844 C 225.96875 397.167969 234.664062 385.445312 248.296875 393.46875 C 260.695312 402.523438 260.1875 415.808594 254.609375 423.230469 C 249.269531 432.484375 243.472656 434.003906 234.683594 431.664062 C 226.851562 429.574219 211.929688 417.101562 191.667969 403.121094 L 244.535156 329.828125 C 242.355469 328.476562 233.09375 324.597656 229.765625 323.210938 C 219.863281 319.089844 206.433594 315.851562 191.582031 316.171875 Z M 275.230469 426.964844 C 275.222656 427.007812 275.210938 427.046875 275.199219 427.089844 L 275.25 427.0625 Z M 275.230469 426.964844 " fill-opacity="1" fill-rule="nonzero"/><g clip-path="url(#447ba90adf)"><path stroke-linecap="butt" transform="matrix(17.296874, 0, 0, 17.296874, 49.06478, 265.547351)" fill="none" stroke-linejoin="miter" d="M 15.48406 8.013071 C 15.48406 8.133667 15.481124 8.25449 15.475027 8.375086 C 15.469155 8.495682 15.460348 8.616052 15.448378 8.736197 C 15.436635 8.856341 15.421956 8.976034 15.404115 9.095501 C 15.386499 9.214968 15.365722 9.333984 15.342236 9.452322 C 15.318749 9.570885 15.292326 9.688546 15.262967 9.805754 C 15.233609 9.922737 15.201314 10.039268 15.16631 10.15467 C 15.131305 10.270298 15.093365 10.384797 15.052714 10.498618 C 15.012064 10.612213 14.968478 10.724905 14.922407 10.836468 C 14.876111 10.948031 14.82733 11.058239 14.775614 11.167543 C 14.723898 11.276622 14.669697 11.384571 14.612787 11.49094 C 14.555876 11.597534 14.496481 11.702547 14.434376 11.80598 C 14.372272 11.909639 14.307683 12.011491 14.24061 12.111987 C 14.173536 12.212484 14.103979 12.311174 14.032163 12.408058 C 13.960122 12.504941 13.885822 12.600244 13.809264 12.693514 C 13.732705 12.786784 13.653889 12.878248 13.572814 12.967679 C 13.491739 13.057335 13.408405 13.144734 13.323039 13.230099 C 13.237674 13.315465 13.150275 13.398573 13.060844 13.479648 C 12.971188 13.560723 12.87995 13.639765 12.786454 13.716324 C 12.693184 13.792882 12.598107 13.867182 12.500998 13.938997 C 12.404114 14.011039 12.305424 14.080596 12.204927 14.14767 C 12.104656 14.214743 12.002579 14.279332 11.899146 14.341211 C 11.795487 14.403315 11.690474 14.462936 11.58388 14.519847 C 11.477511 14.576757 11.369562 14.630958 11.260483 14.682674 C 11.151404 14.734165 11.040971 14.783171 10.929408 14.829467 C 10.817845 14.875538 10.705153 14.919124 10.591558 14.959774 C 10.477963 15.000425 10.363238 15.038365 10.24761 15.07337 C 10.132208 15.108374 10.015903 15.140443 9.898694 15.169801 C 9.781486 15.19916 9.663825 15.225583 9.545262 15.249296 C 9.426924 15.272783 9.307908 15.293334 9.188667 15.311175 C 9.0692 15.32879 8.949281 15.343695 8.829137 15.355438 C 8.708992 15.367408 8.588622 15.376215 8.468026 15.382087 C 8.34743 15.387959 8.226833 15.390895 8.106011 15.390895 C 7.985189 15.390895 7.864593 15.387959 7.743997 15.382087 C 7.623401 15.376215 7.50303 15.367408 7.382886 15.355438 C 7.262741 15.343695 7.142822 15.32879 7.023355 15.311175 C 6.903888 15.293334 6.785099 15.272783 6.666535 15.249296 C 6.548197 15.225583 6.430311 15.19916 6.313328 15.169801 C 6.19612 15.140443 6.079814 15.108374 5.964186 15.07337 C 5.848784 15.038365 5.73406 15.000425 5.620465 14.959774 C 5.506643 14.919124 5.394177 14.875538 5.282615 14.829467 C 5.171052 14.783171 5.060618 14.734165 4.95154 14.682674 C 4.842235 14.630958 4.734512 14.576757 4.628143 14.519847 C 4.521549 14.462936 4.416535 14.403315 4.312876 14.341211 C 4.209444 14.279332 4.107366 14.214743 4.007095 14.14767 C 3.906598 14.080596 3.807908 14.011039 3.711025 13.938997 C 3.613915 13.867182 3.518839 13.792882 3.425343 13.716324 C 3.332072 13.639765 3.240609 13.560723 3.151178 13.479648 C 3.061747 13.398573 2.974349 13.315465 2.888983 13.230099 C 2.803617 13.144734 2.720284 13.057335 2.639209 12.967679 C 2.558134 12.878248 2.479317 12.786784 2.402759 12.693514 C 2.326201 12.600244 2.251901 12.504941 2.179859 12.408058 C 2.108044 12.311174 2.038486 12.212484 1.971413 12.111987 C 1.90434 12.011491 1.839751 11.909639 1.777646 11.80598 C 1.715541 11.702547 1.656146 11.597534 1.599236 11.49094 C 1.542325 11.384571 1.487899 11.276622 1.436408 11.167543 C 1.384692 11.058239 1.335912 10.948031 1.289615 10.836468 C 1.243319 10.724905 1.199959 10.612213 1.159308 10.498618 C 1.118658 10.384797 1.080717 10.270298 1.045713 10.15467 C 1.010708 10.039268 0.978414 9.922737 0.949055 9.805754 C 0.919697 9.688546 0.893274 9.570885 0.869787 9.452322 C 0.8463 9.333984 0.825523 9.214968 0.807908 9.095501 C 0.790067 8.976034 0.775388 8.856341 0.763418 8.736197 C 0.751675 8.616052 0.742867 8.495682 0.736996 8.375086 C 0.730898 8.25449 0.727962 8.133667 0.727962 8.013071 C 0.727962 7.892249 0.730898 7.771653 0.736996 7.651057 C 0.742867 7.530461 0.751675 7.41009 0.763418 7.28972 C 0.775388 7.169575 0.790067 7.049882 0.807908 6.930415 C 0.825523 6.810948 0.8463 6.692159 0.869787 6.573595 C 0.893274 6.455257 0.919697 6.337371 0.949055 6.220388 C 0.978414 6.10318 1.010708 5.986874 1.045713 5.871246 C 1.080717 5.755844 1.118658 5.64112 1.159308 5.527525 C 1.199959 5.413703 1.243319 5.301012 1.289615 5.189449 C 1.335912 5.078112 1.384692 4.967678 1.436408 4.8586 C 1.487899 4.749295 1.542325 4.641572 1.599236 4.534977 C 1.656146 4.428609 1.715541 4.323595 1.777646 4.219937 C 1.839751 4.116278 1.90434 4.014426 1.971413 3.913929 C 2.038486 3.813658 2.108044 3.714968 2.179859 3.617859 C 2.251901 3.520975 2.326201 3.425673 2.402759 3.332403 C 2.479317 3.239132 2.558134 3.147669 2.639209 3.058238 C 2.720284 2.968807 2.803617 2.881409 2.888983 2.796043 C 2.974349 2.710677 3.061747 2.627344 3.151178 2.546269 C 3.240609 2.465194 3.332072 2.386377 3.425343 2.309819 C 3.518839 2.233035 3.613915 2.158961 3.711025 2.086919 C 3.807908 2.015104 3.906598 1.945546 4.007095 1.878473 C 4.107366 1.8114 4.209444 1.746811 4.312876 1.684706 C 4.416535 1.622601 4.521549 1.563206 4.628143 1.506296 C 4.734512 1.44916 4.842235 1.394959 4.95154 1.343468 C 5.060618 1.291752 5.171052 1.242746 5.282615 1.196675 C 5.394177 1.150379 5.506643 1.107019 5.620465 1.066368 C 5.73406 1.025718 5.848784 0.987777 5.964186 0.952773 C 6.079814 0.917543 6.19612 0.885474 6.313328 0.856115 C 6.430311 0.826757 6.548197 0.800334 6.666535 0.776847 C 6.785099 0.753134 6.903888 0.732583 7.023355 0.714968 C 7.142822 0.697127 7.262741 0.682448 7.382886 0.670478 C 7.50303 0.658735 7.623401 0.649701 7.743997 0.64383 C 7.864593 0.637958 7.985189 0.635022 8.106011 0.635022 C 8.226833 0.635022 8.34743 0.637958 8.468026 0.64383 C 8.588622 0.649701 8.708992 0.658735 8.829137 0.670478 C 8.949281 0.682448 9.0692 0.697127 9.188667 0.714968 C 9.307908 0.732583 9.426924 0.753134 9.545262 0.776847 C 9.663825 0.800334 9.781486 0.826757 9.898694 0.856115 C 10.015903 0.885474 10.132208 0.917543 10.24761 0.952773 C 10.363238 0.987777 10.477963 1.025718 10.591558 1.066368 C 10.705153 1.107019 10.817845 1.150379 10.929408 1.196675 C 11.040971 1.242746 11.151404 1.291752 11.260483 1.343468 C 11.369562 1.394959 11.477511 1.44916 11.58388 1.506296 C 11.690474 1.563206 11.795487 1.622601 11.899146 1.684706 C 12.002579 1.746811 12.104656 1.8114 12.204927 1.878473 C 12.305424 1.945546 12.404114 2.015104 12.500998 2.086919 C 12.598107 2.158961 12.693184 2.233035 12.786454 2.309819 C 12.87995 2.386377 12.971188 2.465194 13.060844 2.546269 C 13.150275 2.627344 13.237674 2.710677 13.323039 2.796043 C 13.408405 2.881409 13.491739 2.968807 13.572814 3.058238 C 13.653889 3.147669 13.732705 3.239132 13.809264 3.332403 C 13.885822 3.425673 13.960122 3.520975 14.032163 3.617859 C 14.103979 3.714968 14.173536 3.813658 14.24061 3.913929 C 14.307683 4.014426 14.372272 4.116278 14.434376 4.219937 C 14.496481 4.323595 14.555876 4.428609 14.612787 4.534977 C 14.669697 4.641572 14.723898 4.749295 14.775614 4.8586 C 14.82733 4.967678 14.876111 5.078112 14.922407 5.189449 C 14.968478 5.301012 15.012064 5.413703 15.052714 5.527525 C 15.093365 5.64112 15.131305 5.755844 15.16631 5.871246 C 15.201314 5.986874 15.233609 6.10318 15.262967 6.220388 C 15.292326 6.337371 15.318749 6.455257 15.342236 6.573595 C 15.365722 6.692159 15.386499 6.810948 15.404115 6.930415 C 15.421956 7.049882 15.436635 7.169575 15.448378 7.28972 C 15.460348 7.41009 15.469155 7.530461 15.475027 7.651057 C 15.481124 7.771653 15.48406 7.892249 15.48406 8.013071 Z M 15.48406 8.013071 " stroke="#fadb41" stroke-width="0.562" stroke-opacity="1" stroke-miterlimit="4"/></g><g clip-path="url(#a7a49dc812)"><path fill="#095d62" d="M 429.445312 435.316406 C 434.460938 435.316406 438.53125 431.257812 438.53125 426.246094 C 438.53125 421.238281 434.460938 417.175781 429.445312 417.175781 C 424.429688 417.175781 420.363281 421.238281 420.363281 426.246094 C 420.363281 431.257812 424.429688 435.316406 429.445312 435.316406 Z M 399.488281 477.167969 L 396.6875 483.691406 L 384.027344 483.691406 C 380.683594 483.691406 377.972656 486.398438 377.972656 489.738281 C 377.972656 493.074219 380.683594 495.785156 384.027344 495.785156 L 398.683594 495.785156 C 402.328125 495.785156 405.605469 493.621094 407.03125 490.285156 L 408.695312 486.410156 L 406.675781 485.21875 C 403.398438 483.285156 400.988281 480.425781 399.488281 477.167969 Z M 450.640625 459.503906 L 442.308594 459.503906 L 437.378906 449.441406 C 435.011719 444.613281 430.667969 441.082031 425.6875 439.8125 L 412.234375 435.820312 C 406.878906 434.535156 401.300781 435.714844 396.9375 439.058594 L 389.429688 444.804688 C 386.773438 446.835938 386.269531 450.628906 388.308594 453.28125 C 390.347656 455.933594 394.144531 456.429688 396.796875 454.402344 L 404.308594 448.652344 C 405.761719 447.542969 407.609375 447.140625 409.089844 447.492188 L 411.871094 448.320312 L 404.785156 464.832031 C 402.394531 470.402344 404.535156 476.929688 409.761719 480.007812 L 425.84375 489.488281 L 420.644531 506.066406 C 419.644531 509.253906 421.421875 512.644531 424.613281 513.644531 C 425.214844 513.832031 425.824219 513.921875 426.425781 513.921875 C 429 513.921875 431.390625 512.265625 432.203125 509.679688 L 438.1875 490.582031 C 439.308594 486.660156 437.640625 482.441406 434.09375 480.304688 L 422.503906 473.476562 L 428.429688 458.683594 L 432.265625 466.511719 C 433.78125 469.601562 436.980469 471.59375 440.425781 471.59375 L 450.640625 471.59375 C 453.984375 471.59375 456.695312 468.886719 456.695312 465.546875 C 456.695312 462.207031 453.984375 459.503906 450.640625 459.503906 Z M 450.640625 459.503906 " fill-opacity="1" fill-rule="nonzero"/></g><g fill="#095d62" fill-opacity="1"><g transform="translate(338.635592, 540.667841)"><g><path d="M 19.125 -13.570312 C 19.125 -15.363281 19.125 -17.121094 18.335938 -18.1875 C 17.214844 -19.492188 14.9375 -20.644531 11.140625 -20.644531 C 5.402344 -20.644531 1.125 -15.847656 1.125 -9.714844 C 1.125 -3.886719 4.734375 0.605469 11.140625 0.605469 C 15.390625 0.605469 17.972656 -0.910156 19.886719 -4.28125 L 18.824219 -5.101562 C 17.367188 -2.277344 14.847656 -0.757812 12.054688 -0.757812 C 7.226562 -0.757812 5.375 -5.070312 5.375 -9.714844 C 5.375 -17.09375 8.320312 -19.277344 12.054688 -19.277344 C 15.421875 -19.277344 17.457031 -17.246094 18.214844 -13.570312 Z M 19.125 -13.570312 "/></g></g></g><g fill="#095d62" fill-opacity="1"><g transform="translate(359.244272, 540.667841)"><g><path d="M 11.566406 -7.132812 C 11.566406 -3.644531 10.503906 -1.0625 8.378906 -1.0625 C 6.253906 -1.0625 5.191406 -3.644531 5.191406 -7.132812 C 5.191406 -10.625 6.253906 -13.207031 8.378906 -13.207031 C 10.503906 -13.207031 11.566406 -10.625 11.566406 -7.132812 Z M 1.09375 -7.132812 C 1.09375 -2.976562 3.855469 0.304688 8.378906 0.304688 C 12.902344 0.304688 15.664062 -2.976562 15.664062 -7.132812 C 15.664062 -11.292969 12.902344 -14.574219 8.378906 -14.574219 C 3.855469 -14.574219 1.09375 -11.292969 1.09375 -7.132812 Z M 1.09375 -7.132812 "/></g></g></g><g fill="#095d62" fill-opacity="1"><g transform="translate(375.998307, 540.667841)"><g><path d="M 8.957031 -13.054688 C 10.625 -13.054688 11.839844 -11.960938 11.839844 -9.015625 L 11.839844 0 L 15.789062 0 L 15.789062 -8.988281 C 15.789062 -12.902344 13.8125 -14.574219 10.019531 -14.574219 C 7.527344 -14.574219 6.316406 -13.8125 5.585938 -13.144531 C 5.128906 -13.964844 4.402344 -14.269531 3.035156 -14.269531 L 0.03125 -14.269531 L 0.03125 -13.359375 L 0.332031 -13.359375 C 2.15625 -13.359375 2.429688 -12.144531 2.429688 -10.324219 L 2.429688 0 L 6.375 0 L 6.375 -10.503906 C 6.375 -11.140625 6.316406 -11.660156 6.164062 -12.113281 C 6.679688 -12.628906 7.652344 -13.054688 8.957031 -13.054688 Z M 8.957031 -13.054688 "/></g></g></g><g fill="#095d62" fill-opacity="1"><g transform="translate(393.450432, 540.667841)"><g><path d="M 6.34375 -1.0625 C 3.917969 -1.0625 2.730469 -2.609375 2.398438 -4.554688 L 1.335938 -4.554688 C 1.335938 -3.003906 1.335938 -1.640625 2.066406 -0.941406 C 2.882812 -0.183594 4.433594 0.304688 6.953125 0.304688 C 10.566406 0.304688 13.175781 -1.09375 13.175781 -3.734375 C 13.175781 -5.890625 11.75 -6.953125 8.957031 -8.136719 L 7.132812 -8.894531 C 5.796875 -9.472656 4.980469 -10.050781 4.980469 -11.140625 C 4.980469 -12.324219 5.738281 -13.207031 7.558594 -13.207031 C 9.988281 -13.207031 11.171875 -11.660156 11.507812 -9.714844 L 12.570312 -9.714844 C 12.570312 -11.261719 12.570312 -12.628906 11.839844 -13.328125 C 11.019531 -14.085938 9.472656 -14.574219 6.953125 -14.574219 C 3.613281 -14.574219 1.183594 -13.175781 1.183594 -10.535156 C 1.183594 -8.5625 2.640625 -7.316406 5.070312 -6.253906 L 6.648438 -5.585938 C 8.226562 -4.917969 9.382812 -4.3125 9.382812 -3.128906 C 9.382812 -1.941406 8.621094 -1.0625 6.34375 -1.0625 Z M 6.34375 -1.0625 "/></g></g></g><g fill="#095d62" fill-opacity="1"><g transform="translate(407.654941, 540.667841)"><g><path d="M 2.125 -5.28125 C 2.125 -1.367188 3.945312 0.304688 7.742188 0.304688 C 9.261719 0.304688 10.566406 -0.332031 11.535156 -1.367188 L 11.6875 -1.367188 L 12.75 0 L 15.332031 0 L 15.332031 -14.269531 L 11.386719 -14.269531 L 11.386719 -3.035156 C 10.808594 -1.972656 9.898438 -1.0625 8.652344 -1.0625 C 6.984375 -1.0625 6.070312 -2.125 6.070312 -5.253906 L 6.070312 -10.324219 C 6.070312 -13.328125 5.464844 -14.269531 3.339844 -14.269531 L -0.304688 -14.269531 L -0.304688 -13.359375 L 0 -13.359375 C 1.820312 -13.359375 2.125 -12.144531 2.125 -10.324219 Z M 2.125 -5.28125 "/></g></g></g><g fill="#095d62" fill-opacity="1"><g transform="translate(424.803545, 540.667841)"><g><path d="M 1.941406 0 L 5.890625 0 L 5.890625 -16.089844 C 5.890625 -19.097656 5.28125 -20.039062 3.15625 -20.039062 L -0.484375 -20.039062 L -0.484375 -19.125 L -0.183594 -19.125 C 1.640625 -19.125 1.941406 -17.914062 1.941406 -16.089844 Z M 1.941406 0 "/></g></g></g><g fill="#095d62" fill-opacity="1"><g transform="translate(432.634233, 540.667841)"><g><path d="M 6.40625 -18.824219 L 3.976562 -18.824219 L 2.460938 -17 L 2.460938 -14.269531 L 0.636719 -14.269531 L 0.636719 -12.902344 L 2.460938 -12.902344 L 2.460938 -4.128906 C 2.460938 -1.214844 4.097656 0.304688 6.863281 0.304688 C 8.347656 0.304688 9.777344 -0.0898438 10.808594 -1.03125 L 10.382812 -1.882812 C 9.65625 -1.398438 8.863281 -1.0625 7.984375 -1.0625 C 6.984375 -1.0625 6.40625 -1.667969 6.40625 -3.945312 L 6.40625 -12.902344 L 9.746094 -12.902344 L 9.746094 -14.269531 L 6.40625 -14.269531 Z M 6.40625 -18.824219 "/></g></g></g><g fill="#095d62" fill-opacity="1"><g transform="translate(443.378667, 540.667841)"><g><path d="M 11.566406 -7.132812 C 11.566406 -3.644531 10.503906 -1.0625 8.378906 -1.0625 C 6.253906 -1.0625 5.191406 -3.644531 5.191406 -7.132812 C 5.191406 -10.625 6.253906 -13.207031 8.378906 -13.207031 C 10.503906 -13.207031 11.566406 -10.625 11.566406 -7.132812 Z M 1.09375 -7.132812 C 1.09375 -2.976562 3.855469 0.304688 8.378906 0.304688 C 12.902344 0.304688 15.664062 -2.976562 15.664062 -7.132812 C 15.664062 -11.292969 12.902344 -14.574219 8.378906 -14.574219 C 3.855469 -14.574219 1.09375 -11.292969 1.09375 -7.132812 Z M 1.09375 -7.132812 "/></g></g></g><g fill="#095d62" fill-opacity="1"><g transform="translate(460.132703, 540.667841)"><g><path d="M 9.410156 -14.574219 C 7.589844 -14.574219 6.316406 -13.785156 5.585938 -13.144531 C 5.128906 -13.964844 4.402344 -14.269531 3.035156 -14.269531 L 0.03125 -14.269531 L 0.03125 -13.359375 L 0.332031 -13.359375 C 2.15625 -13.359375 2.429688 -12.144531 2.429688 -10.324219 L 2.429688 0 L 6.375 0 L 6.375 -10.199219 C 6.375 -10.746094 6.34375 -11.234375 6.253906 -11.660156 C 6.769531 -12.175781 7.652344 -12.597656 8.957031 -12.597656 C 9.835938 -12.597656 10.59375 -12.082031 11.050781 -11.414062 L 12.597656 -12.597656 C 11.929688 -13.933594 10.898438 -14.574219 9.410156 -14.574219 Z M 9.410156 -14.574219 "/></g></g></g><g fill="#095d62" fill-opacity="1"><g transform="translate(472.819634, 540.667841)"><g><path d="M 6.042969 -17.609375 C 6.042969 -18.824219 5.3125 -19.917969 3.765625 -19.917969 C 2.824219 -19.917969 2.09375 -19.277344 2.09375 -18.214844 C 2.09375 -17 2.824219 -15.910156 4.371094 -15.910156 C 5.3125 -15.910156 6.042969 -16.546875 6.042969 -17.609375 Z M 2.398438 0 L 6.34375 0 L 6.34375 -10.324219 C 6.34375 -13.328125 5.738281 -14.269531 3.613281 -14.269531 L -0.03125 -14.269531 L -0.03125 -13.359375 L 0.273438 -13.359375 C 2.09375 -13.359375 2.398438 -12.144531 2.398438 -10.324219 Z M 2.398438 0 "/></g></g></g><g fill="#095d62" fill-opacity="1"><g transform="translate(480.923492, 540.667841)"><g><path d="M 9.53125 -3.1875 C 9.078125 -2.125 8.136719 -1.214844 6.953125 -1.214844 C 5.738281 -1.214844 4.980469 -2.09375 4.980469 -3.796875 C 4.980469 -5.949219 6.164062 -6.984375 9.078125 -6.984375 L 9.53125 -6.984375 Z M 7.257812 -14.574219 C 5.28125 -14.574219 3.429688 -14.328125 2.703125 -13.511719 C 1.972656 -12.691406 1.941406 -11.535156 1.941406 -10.472656 L 3.613281 -10.472656 C 4.097656 -12.75 5.28125 -13.207031 6.648438 -13.207031 C 8.46875 -13.207031 9.53125 -11.992188 9.53125 -8.347656 L 9.078125 -8.347656 C 2.550781 -8.347656 0.878906 -6.679688 0.878906 -3.796875 C 0.878906 -1.367188 2.671875 0.304688 6.042969 0.304688 C 7.589844 0.304688 8.894531 -0.304688 9.683594 -1.367188 L 9.835938 -1.367188 L 10.898438 0 L 13.480469 0 L 13.480469 -8.195312 C 13.480469 -12.476562 11.234375 -14.574219 7.257812 -14.574219 Z M 7.257812 -14.574219 "/></g></g></g><g clip-path="url(#c672de93d4)"><path fill="#095d62" d="M 633.546875 480.132812 L 631.195312 480.550781 C 625.433594 481.570312 619.542969 482.085938 613.691406 482.085938 C 608.195312 482.085938 602.660156 481.628906 597.234375 480.730469 L 593.660156 480.136719 L 589.390625 502.949219 C 588.953125 505.289062 590.742188 507.449219 593.113281 507.449219 L 634.089844 507.449219 C 636.464844 507.449219 638.253906 505.289062 637.816406 502.949219 L 633.546875 480.132812 " fill-opacity="1" fill-rule="nonzero"/></g><g clip-path="url(#d533b7c6c4)"><path fill="#095d62" d="M 643.472656 433.558594 C 642.386719 430.183594 639.921875 427.429688 636.695312 425.976562 L 625.257812 420.84375 C 625.257812 420.84375 604.554688 437.523438 596.332031 467.523438 C 602.199219 468.539062 608.222656 469.054688 614.242188 469.054688 C 620.171875 469.054688 625.871094 468.554688 631.183594 467.5625 L 631.554688 467.496094 L 630.574219 460.625 C 630.417969 459.535156 631.070312 458.496094 632.117188 458.164062 C 633.308594 457.78125 634.582031 458.460938 634.9375 459.664062 L 634.9375 459.667969 L 642.929688 487.210938 L 659.050781 482.019531 L 643.472656 433.558594 " fill-opacity="1" fill-rule="nonzero"/></g><path fill="#095d62" d="M 594.246094 477.820312 L 597.621094 478.378906 C 608.605469 480.199219 619.816406 480.140625 630.78125 478.203125 L 632.957031 477.820312 L 631.964844 469.84375 L 631.617188 469.90625 C 620.089844 472.054688 607.28125 471.863281 595.730469 469.84375 L 594.246094 477.820312 " fill-opacity="1" fill-rule="nonzero"/><path fill="#095d62" d="M 594.714844 460.046875 L 596.0625 460.382812 C 601.222656 445.628906 609.078125 434.585938 615.113281 427.632812 L 610.414062 420.84375 L 601.949219 420.84375 L 590.507812 425.976562 C 587.28125 427.429688 584.820312 430.183594 583.734375 433.558594 L 568.15625 482.019531 L 584.277344 487.210938 L 591.574219 462.058594 C 591.96875 460.691406 593.3125 459.832031 594.714844 460.046875 " fill-opacity="1" fill-rule="nonzero"/><g clip-path="url(#ed5e31cf94)"><path fill="#095d62" d="M 611.652344 418.457031 L 616.738281 425.804688 C 620.605469 421.566406 623.429688 419.253906 623.765625 418.984375 L 624.898438 418.070312 L 624.933594 418.085938 C 624.390625 415.738281 622.699219 413.789062 620.398438 412.949219 L 606.804688 412.949219 C 604.386719 413.832031 602.640625 415.945312 602.195312 418.457031 L 611.652344 418.457031 " fill-opacity="1" fill-rule="nonzero"/></g><g fill="#095d62" fill-opacity="1"><g transform="translate(542.695101, 540.667913)"><g><path d="M 2.914062 0 L 6.863281 0 L 6.863281 -8.441406 L 11.75 -3.339844 C 14.632812 -0.304688 16.910156 0.304688 19.15625 0.304688 C 20.097656 0.304688 20.917969 0.152344 21.375 0 L 21.375 -0.730469 C 20.1875 -0.878906 18.125 -2.308594 16.546875 -3.945312 L 9.53125 -11.234375 L 14.058594 -16.820312 C 15.421875 -18.519531 17.304688 -18.976562 19.613281 -18.976562 L 19.613281 -20.039062 L 17.488281 -20.039062 C 15.089844 -20.039062 13.449219 -18.519531 12.113281 -16.851562 L 6.863281 -10.324219 L 6.863281 -16.089844 C 6.863281 -19.097656 6.195312 -20.039062 4.097656 -20.039062 L 0.457031 -20.039062 L 0.457031 -19.125 L 0.757812 -19.125 C 2.582031 -19.125 2.882812 -17.914062 2.882812 -16.089844 Z M 2.914062 0 "/></g></g></g><g fill="#095d62" fill-opacity="1"><g transform="translate(563.7287, 540.667913)"><g><path d="M 9.410156 -14.574219 C 7.589844 -14.574219 6.316406 -13.785156 5.585938 -13.144531 C 5.128906 -13.964844 4.402344 -14.269531 3.035156 -14.269531 L 0.03125 -14.269531 L 0.03125 -13.359375 L 0.332031 -13.359375 C 2.15625 -13.359375 2.429688 -12.144531 2.429688 -10.324219 L 2.429688 0 L 6.375 0 L 6.375 -10.199219 C 6.375 -10.746094 6.34375 -11.234375 6.253906 -11.660156 C 6.769531 -12.175781 7.652344 -12.597656 8.957031 -12.597656 C 9.835938 -12.597656 10.59375 -12.082031 11.050781 -11.414062 L 12.597656 -12.597656 C 11.929688 -13.933594 10.898438 -14.574219 9.410156 -14.574219 Z M 9.410156 -14.574219 "/></g></g></g><g fill="#095d62" fill-opacity="1"><g transform="translate(576.415631, 540.667913)"><g><path d="M 9.53125 -3.1875 C 9.078125 -2.125 8.136719 -1.214844 6.953125 -1.214844 C 5.738281 -1.214844 4.980469 -2.09375 4.980469 -3.796875 C 4.980469 -5.949219 6.164062 -6.984375 9.078125 -6.984375 L 9.53125 -6.984375 Z M 7.257812 -14.574219 C 5.28125 -14.574219 3.429688 -14.328125 2.703125 -13.511719 C 1.972656 -12.691406 1.941406 -11.535156 1.941406 -10.472656 L 3.613281 -10.472656 C 4.097656 -12.75 5.28125 -13.207031 6.648438 -13.207031 C 8.46875 -13.207031 9.53125 -11.992188 9.53125 -8.347656 L 9.078125 -8.347656 C 2.550781 -8.347656 0.878906 -6.679688 0.878906 -3.796875 C 0.878906 -1.367188 2.671875 0.304688 6.042969 0.304688 C 7.589844 0.304688 8.894531 -0.304688 9.683594 -1.367188 L 9.835938 -1.367188 L 10.898438 0 L 13.480469 0 L 13.480469 -8.195312 C 13.480469 -12.476562 11.234375 -14.574219 7.257812 -14.574219 Z M 7.257812 -14.574219 "/></g></g></g><g fill="#095d62" fill-opacity="1"><g transform="translate(591.46999, 540.667913)"><g><path d="M 7.46875 0.304688 L 8.5625 0.304688 L 15.027344 -14.269531 L 13.390625 -14.269531 L 9.261719 -4.949219 L 6.589844 -10.777344 C 5.128906 -13.933594 3.1875 -14.574219 0.757812 -14.574219 C 0.484375 -14.574219 -0.210938 -14.511719 -0.363281 -14.511719 L -0.363281 -13.90625 C 0.636719 -13.8125 1.304688 -12.992188 2.335938 -10.777344 Z M 7.46875 0.304688 "/></g></g></g><g fill="#095d62" fill-opacity="1"><g transform="translate(606.645747, 540.667913)"><g><path d="M 1.761719 -6.589844 L 10.230469 -6.589844 L 10.230469 -9.472656 L 1.761719 -9.472656 Z M 1.761719 -6.589844 "/></g></g></g><g fill="#095d62" fill-opacity="1"><g transform="translate(618.6346, 540.667913)"><g><path d="M 5.617188 -13.117188 C 5.160156 -13.964844 4.25 -14.269531 3.035156 -14.269531 L 0.03125 -14.269531 L 0.03125 -13.359375 L 0.332031 -13.359375 C 2.15625 -13.359375 2.429688 -12.144531 2.429688 -10.324219 L 2.429688 0 L 6.375 0 L 6.375 -10.230469 C 6.375 -10.867188 6.316406 -11.386719 6.164062 -11.839844 C 6.558594 -12.355469 7.558594 -13.054688 8.5 -13.054688 C 9.867188 -13.054688 10.929688 -11.960938 10.929688 -9.015625 L 10.929688 0 L 14.875 0 L 14.875 -8.988281 C 14.875 -10.050781 14.816406 -11.082031 14.390625 -11.902344 C 14.90625 -12.539062 15.878906 -13.054688 17 -13.054688 C 18.367188 -13.054688 19.429688 -11.960938 19.429688 -9.015625 L 19.429688 0 L 23.378906 0 L 23.378906 -8.988281 C 23.378906 -12.902344 21.433594 -14.574219 18.0625 -14.574219 C 15.726562 -14.574219 14.574219 -13.722656 13.753906 -12.84375 C 13.296875 -13.390625 11.839844 -14.574219 9.5625 -14.574219 C 7.742188 -14.574219 6.464844 -13.753906 5.738281 -13.117188 Z M 5.617188 -13.117188 "/></g></g></g><g fill="#095d62" fill-opacity="1"><g transform="translate(643.704953, 540.667913)"><g><path d="M 9.53125 -3.1875 C 9.078125 -2.125 8.136719 -1.214844 6.953125 -1.214844 C 5.738281 -1.214844 4.980469 -2.09375 4.980469 -3.796875 C 4.980469 -5.949219 6.164062 -6.984375 9.078125 -6.984375 L 9.53125 -6.984375 Z M 7.257812 -14.574219 C 5.28125 -14.574219 3.429688 -14.328125 2.703125 -13.511719 C 1.972656 -12.691406 1.941406 -11.535156 1.941406 -10.472656 L 3.613281 -10.472656 C 4.097656 -12.75 5.28125 -13.207031 6.648438 -13.207031 C 8.46875 -13.207031 9.53125 -11.992188 9.53125 -8.347656 L 9.078125 -8.347656 C 2.550781 -8.347656 0.878906 -6.679688 0.878906 -3.796875 C 0.878906 -1.367188 2.671875 0.304688 6.042969 0.304688 C 7.589844 0.304688 8.894531 -0.304688 9.683594 -1.367188 L 9.835938 -1.367188 L 10.898438 0 L 13.480469 0 L 13.480469 -8.195312 C 13.480469 -12.476562 11.234375 -14.574219 7.257812 -14.574219 Z M 7.257812 -14.574219 "/></g></g></g><g fill="#095d62" fill-opacity="1"><g transform="translate(658.759311, 540.667913)"><g><path d="M 1.335938 -9.835938 C 1.335938 -7.984375 2.671875 -6.375 4.371094 -5.769531 C 3.550781 -5.433594 3.15625 -4.949219 3.15625 -4.25 C 3.15625 -3.308594 3.765625 -2.824219 4.523438 -2.582031 C 2.582031 -2.09375 0.425781 -0.820312 0.425781 1.367188 C 0.425781 4.886719 3.613281 6.070312 7.863281 6.070312 C 12.113281 6.070312 15.300781 4.886719 15.300781 1.367188 C 15.300781 -1.820312 11.960938 -3.339844 7.863281 -3.429688 C 6.042969 -3.460938 4.828125 -3.550781 4.828125 -4.25 C 4.828125 -5.070312 6.042969 -5.160156 7.863281 -5.160156 C 11.808594 -5.160156 14.390625 -6.34375 14.390625 -9.835938 C 14.390625 -11.261719 13.207031 -12.75 11.507812 -13.390625 L 14.238281 -13.753906 L 14.238281 -14.574219 L 7.863281 -14.574219 C 4.21875 -14.574219 1.335938 -13.359375 1.335938 -9.835938 Z M 8.105469 -2.035156 C 9.957031 -1.667969 11.203125 -0.457031 11.203125 1.367188 C 11.203125 3.671875 9.898438 4.707031 7.863281 4.707031 C 5.828125 4.707031 4.523438 3.671875 4.523438 1.367188 C 4.523438 -0.578125 5.34375 -1.609375 6.679688 -2.1875 Z M 10.292969 -9.835938 C 10.292969 -7.316406 9.289062 -6.375 7.863281 -6.375 C 6.4375 -6.375 5.433594 -7.316406 5.433594 -9.835938 C 5.433594 -12.296875 6.4375 -13.359375 7.863281 -13.359375 C 9.289062 -13.359375 10.292969 -12.144531 10.292969 -9.835938 Z M 10.292969 -9.835938 "/></g></g></g><g fill="#095d62" fill-opacity="1"><g transform="translate(674.633159, 540.667913)"><g><path d="M 9.53125 -3.1875 C 9.078125 -2.125 8.136719 -1.214844 6.953125 -1.214844 C 5.738281 -1.214844 4.980469 -2.09375 4.980469 -3.796875 C 4.980469 -5.949219 6.164062 -6.984375 9.078125 -6.984375 L 9.53125 -6.984375 Z M 7.257812 -14.574219 C 5.28125 -14.574219 3.429688 -14.328125 2.703125 -13.511719 C 1.972656 -12.691406 1.941406 -11.535156 1.941406 -10.472656 L 3.613281 -10.472656 C 4.097656 -12.75 5.28125 -13.207031 6.648438 -13.207031 C 8.46875 -13.207031 9.53125 -11.992188 9.53125 -8.347656 L 9.078125 -8.347656 C 2.550781 -8.347656 0.878906 -6.679688 0.878906 -3.796875 C 0.878906 -1.367188 2.671875 0.304688 6.042969 0.304688 C 7.589844 0.304688 8.894531 -0.304688 9.683594 -1.367188 L 9.835938 -1.367188 L 10.898438 0 L 13.480469 0 L 13.480469 -8.195312 C 13.480469 -12.476562 11.234375 -14.574219 7.257812 -14.574219 Z M 7.257812 -14.574219 "/></g></g></g><g clip-path="url(#08a21bc0ed)"><path fill="#095d62" d="M 383.894531 280.453125 L 376.472656 280.453125 C 374.414062 280.453125 372.757812 282.117188 372.757812 284.179688 L 372.757812 300.328125 L 369.046875 300.328125 C 368.367188 300.328125 367.808594 300.886719 367.808594 301.570312 L 367.808594 309.023438 C 367.808594 309.707031 368.367188 310.265625 369.046875 310.265625 L 372.757812 310.265625 L 372.757812 326.414062 C 372.757812 328.476562 374.414062 330.140625 376.472656 330.140625 L 383.894531 330.140625 C 385.953125 330.140625 387.609375 328.476562 387.609375 326.414062 L 387.609375 284.179688 C 387.609375 282.117188 385.953125 280.453125 383.894531 280.453125 Z M 465.570312 300.328125 L 461.859375 300.328125 L 461.859375 284.179688 C 461.859375 282.117188 460.203125 280.453125 458.144531 280.453125 L 450.722656 280.453125 C 448.664062 280.453125 447.007812 282.117188 447.007812 284.179688 L 447.007812 326.414062 C 447.007812 328.476562 448.664062 330.140625 450.722656 330.140625 L 458.144531 330.140625 C 460.203125 330.140625 461.859375 328.476562 461.859375 326.414062 L 461.859375 310.265625 L 465.570312 310.265625 C 466.253906 310.265625 466.808594 309.707031 466.808594 309.023438 L 466.808594 301.570312 C 466.808594 300.886719 466.253906 300.328125 465.570312 300.328125 Z M 438.347656 270.519531 L 430.921875 270.519531 C 428.863281 270.519531 427.207031 272.179688 427.207031 274.246094 L 427.207031 300.328125 L 407.410156 300.328125 L 407.410156 274.246094 C 407.410156 272.179688 405.753906 270.519531 403.695312 270.519531 L 396.269531 270.519531 C 394.214844 270.519531 392.558594 272.179688 392.558594 274.246094 L 392.558594 336.351562 C 392.558594 338.414062 394.214844 340.078125 396.269531 340.078125 L 403.695312 340.078125 C 405.753906 340.078125 407.410156 338.414062 407.410156 336.351562 L 407.410156 310.265625 L 427.207031 310.265625 L 427.207031 336.351562 C 427.207031 338.414062 428.863281 340.078125 430.921875 340.078125 L 438.347656 340.078125 C 440.402344 340.078125 442.058594 338.414062 442.058594 336.351562 L 442.058594 274.246094 C 442.058594 272.179688 440.402344 270.519531 438.347656 270.519531 Z M 438.347656 270.519531 " fill-opacity="1" fill-rule="nonzero"/></g><g fill="#095d62" fill-opacity="1"><g transform="translate(358.831831, 369.457413)"><g><path d="M 8.804688 -18.824219 C 10.71875 -18.824219 12.75 -17.820312 12.75 -14.085938 C 12.75 -10.324219 10.71875 -9.320312 8.652344 -9.320312 L 6.832031 -9.320312 L 6.832031 -18.609375 C 7.46875 -18.730469 8.136719 -18.824219 8.804688 -18.824219 Z M 0.457031 -20.039062 L 0.457031 -19.125 L 0.757812 -19.125 C 2.582031 -19.125 2.882812 -17.914062 2.882812 -16.089844 L 2.882812 0 L 6.832031 0 L 6.832031 -8.105469 L 9.714844 -8.105469 C 11.507812 -8.105469 17 -8.683594 17 -13.933594 C 17 -19.492188 11.535156 -20.039062 8.804688 -20.039062 Z M 0.457031 -20.039062 "/></g></g></g><g fill="#095d62" fill-opacity="1"><g transform="translate(376.344654, 369.457413)"><g><path d="M 8.5625 -1.0625 C 6.589844 -1.0625 5.222656 -2.582031 5.222656 -6.589844 L 14.359375 -6.589844 C 14.453125 -7.226562 14.480469 -7.773438 14.480469 -8.5 C 14.480469 -12.144531 11.566406 -14.574219 7.800781 -14.574219 C 4.039062 -14.574219 1.125 -11.992188 1.125 -7.132812 C 1.125 -2.882812 3.824219 0.304688 8.105469 0.304688 C 11.414062 0.304688 12.964844 -1.519531 13.84375 -2.882812 L 12.902344 -3.582031 C 11.839844 -2.15625 10.65625 -1.0625 8.5625 -1.0625 Z M 5.222656 -7.953125 C 5.222656 -11.960938 6.4375 -13.207031 7.800781 -13.207031 C 9.320312 -13.207031 10.382812 -11.960938 10.382812 -7.953125 Z M 5.222656 -7.953125 "/></g></g></g><g fill="#095d62" fill-opacity="1"><g transform="translate(391.793583, 369.457413)"><g><path d="M 9.410156 -14.574219 C 7.589844 -14.574219 6.316406 -13.785156 5.585938 -13.144531 C 5.128906 -13.964844 4.402344 -14.269531 3.035156 -14.269531 L 0.03125 -14.269531 L 0.03125 -13.359375 L 0.332031 -13.359375 C 2.15625 -13.359375 2.429688 -12.144531 2.429688 -10.324219 L 2.429688 0 L 6.375 0 L 6.375 -10.199219 C 6.375 -10.746094 6.34375 -11.234375 6.253906 -11.660156 C 6.769531 -12.175781 7.652344 -12.597656 8.957031 -12.597656 C 9.835938 -12.597656 10.59375 -12.082031 11.050781 -11.414062 L 12.597656 -12.597656 C 11.929688 -13.933594 10.898438 -14.574219 9.410156 -14.574219 Z M 9.410156 -14.574219 "/></g></g></g><g fill="#095d62" fill-opacity="1"><g transform="translate(404.480514, 369.457413)"><g><path d="M 6.34375 -1.0625 C 3.917969 -1.0625 2.730469 -2.609375 2.398438 -4.554688 L 1.335938 -4.554688 C 1.335938 -3.003906 1.335938 -1.640625 2.066406 -0.941406 C 2.882812 -0.183594 4.433594 0.304688 6.953125 0.304688 C 10.566406 0.304688 13.175781 -1.09375 13.175781 -3.734375 C 13.175781 -5.890625 11.75 -6.953125 8.957031 -8.136719 L 7.132812 -8.894531 C 5.796875 -9.472656 4.980469 -10.050781 4.980469 -11.140625 C 4.980469 -12.324219 5.738281 -13.207031 7.558594 -13.207031 C 9.988281 -13.207031 11.171875 -11.660156 11.507812 -9.714844 L 12.570312 -9.714844 C 12.570312 -11.261719 12.570312 -12.628906 11.839844 -13.328125 C 11.019531 -14.085938 9.472656 -14.574219 6.953125 -14.574219 C 3.613281 -14.574219 1.183594 -13.175781 1.183594 -10.535156 C 1.183594 -8.5625 2.640625 -7.316406 5.070312 -6.253906 L 6.648438 -5.585938 C 8.226562 -4.917969 9.382812 -4.3125 9.382812 -3.128906 C 9.382812 -1.941406 8.621094 -1.0625 6.34375 -1.0625 Z M 6.34375 -1.0625 "/></g></g></g><g fill="#095d62" fill-opacity="1"><g transform="translate(418.685023, 369.457413)"><g><path d="M 11.566406 -7.132812 C 11.566406 -3.644531 10.503906 -1.0625 8.378906 -1.0625 C 6.253906 -1.0625 5.191406 -3.644531 5.191406 -7.132812 C 5.191406 -10.625 6.253906 -13.207031 8.378906 -13.207031 C 10.503906 -13.207031 11.566406 -10.625 11.566406 -7.132812 Z M 1.09375 -7.132812 C 1.09375 -2.976562 3.855469 0.304688 8.378906 0.304688 C 12.902344 0.304688 15.664062 -2.976562 15.664062 -7.132812 C 15.664062 -11.292969 12.902344 -14.574219 8.378906 -14.574219 C 3.855469 -14.574219 1.09375 -11.292969 1.09375 -7.132812 Z M 1.09375 -7.132812 "/></g></g></g><g fill="#095d62" fill-opacity="1"><g transform="translate(435.439058, 369.457413)"><g><path d="M 8.957031 -13.054688 C 10.625 -13.054688 11.839844 -11.960938 11.839844 -9.015625 L 11.839844 0 L 15.789062 0 L 15.789062 -8.988281 C 15.789062 -12.902344 13.8125 -14.574219 10.019531 -14.574219 C 7.527344 -14.574219 6.316406 -13.8125 5.585938 -13.144531 C 5.128906 -13.964844 4.402344 -14.269531 3.035156 -14.269531 L 0.03125 -14.269531 L 0.03125 -13.359375 L 0.332031 -13.359375 C 2.15625 -13.359375 2.429688 -12.144531 2.429688 -10.324219 L 2.429688 0 L 6.375 0 L 6.375 -10.503906 C 6.375 -11.140625 6.316406 -11.660156 6.164062 -12.113281 C 6.679688 -12.628906 7.652344 -13.054688 8.957031 -13.054688 Z M 8.957031 -13.054688 "/></g></g></g><g fill="#095d62" fill-opacity="1"><g transform="translate(452.891183, 369.457413)"><g><path d="M 9.53125 -3.1875 C 9.078125 -2.125 8.136719 -1.214844 6.953125 -1.214844 C 5.738281 -1.214844 4.980469 -2.09375 4.980469 -3.796875 C 4.980469 -5.949219 6.164062 -6.984375 9.078125 -6.984375 L 9.53125 -6.984375 Z M 7.257812 -14.574219 C 5.28125 -14.574219 3.429688 -14.328125 2.703125 -13.511719 C 1.972656 -12.691406 1.941406 -11.535156 1.941406 -10.472656 L 3.613281 -10.472656 C 4.097656 -12.75 5.28125 -13.207031 6.648438 -13.207031 C 8.46875 -13.207031 9.53125 -11.992188 9.53125 -8.347656 L 9.078125 -8.347656 C 2.550781 -8.347656 0.878906 -6.679688 0.878906 -3.796875 C 0.878906 -1.367188 2.671875 0.304688 6.042969 0.304688 C 7.589844 0.304688 8.894531 -0.304688 9.683594 -1.367188 L 9.835938 -1.367188 L 10.898438 0 L 13.480469 0 L 13.480469 -8.195312 C 13.480469 -12.476562 11.234375 -14.574219 7.257812 -14.574219 Z M 7.257812 -14.574219 "/></g></g></g><g fill="#095d62" fill-opacity="1"><g transform="translate(467.945541, 369.457413)"><g><path d="M 1.941406 0 L 5.890625 0 L 5.890625 -16.089844 C 5.890625 -19.097656 5.28125 -20.039062 3.15625 -20.039062 L -0.484375 -20.039062 L -0.484375 -19.125 L -0.183594 -19.125 C 1.640625 -19.125 1.941406 -17.914062 1.941406 -16.089844 Z M 1.941406 0 "/></g></g></g><g clip-path="url(#148fc499cf)"><path fill="#095d62" d="M 636.203125 274.546875 L 632.550781 274.546875 C 634.859375 278.523438 636.203125 283.125 636.203125 288.046875 C 636.203125 302.933594 624.089844 315.046875 609.203125 315.046875 C 594.316406 315.046875 582.203125 302.933594 582.203125 288.046875 C 582.203125 283.125 583.546875 278.523438 585.855469 274.546875 L 582.203125 274.546875 C 577.242188 274.546875 573.203125 278.585938 573.203125 283.546875 L 573.203125 328.546875 C 573.203125 333.511719 577.242188 337.546875 582.203125 337.546875 L 636.203125 337.546875 C 641.164062 337.546875 645.203125 333.511719 645.203125 328.546875 L 645.203125 283.546875 C 645.203125 278.585938 641.164062 274.546875 636.203125 274.546875 Z M 609.203125 310.546875 C 621.628906 310.546875 631.703125 300.472656 631.703125 288.046875 C 631.703125 275.621094 621.628906 265.546875 609.203125 265.546875 C 596.777344 265.546875 586.703125 275.621094 586.703125 288.046875 C 586.703125 300.472656 596.777344 310.546875 609.203125 310.546875 Z M 609.160156 289.179688 L 613.882812 278.160156 C 614.375 277.011719 615.703125 276.484375 616.839844 276.980469 C 617.984375 277.46875 618.511719 278.792969 618.023438 279.933594 L 613.289062 290.976562 C 614.226562 291.984375 614.828125 293.3125 614.828125 294.796875 C 614.828125 297.902344 612.308594 300.421875 609.203125 300.421875 C 606.097656 300.421875 603.578125 297.902344 603.578125 294.796875 C 603.578125 291.707031 606.074219 289.203125 609.160156 289.179688 Z M 609.160156 289.179688 " fill-opacity="1" fill-rule="nonzero"/></g><g fill="#095d62" fill-opacity="1"><g transform="translate(506.968695, 369.380481)"><g><path d="M 10.566406 -20.039062 L 9.199219 -20.039062 L 0.242188 0 L 1.820312 0 L 4.3125 -5.527344 L 12.386719 -5.527344 L 13.085938 -3.824219 C 14.542969 -0.363281 17.0625 0.121094 19.066406 0.121094 C 19.519531 0.121094 20.1875 0.0625 20.523438 -0.03125 L 20.523438 -0.789062 C 19.15625 -0.941406 18.09375 -2.035156 17.367188 -3.824219 Z M 8.46875 -14.816406 L 11.808594 -6.890625 L 4.949219 -6.890625 Z M 8.46875 -14.816406 "/></g></g></g><g fill="#095d62" fill-opacity="1"><g transform="translate(526.606126, 369.380481)"><g><path d="M 7.46875 0.304688 L 8.5625 0.304688 L 15.027344 -14.269531 L 13.390625 -14.269531 L 9.261719 -4.949219 L 6.589844 -10.777344 C 5.128906 -13.933594 3.1875 -14.574219 0.757812 -14.574219 C 0.484375 -14.574219 -0.210938 -14.511719 -0.363281 -14.511719 L -0.363281 -13.90625 C 0.636719 -13.8125 1.304688 -12.992188 2.335938 -10.777344 Z M 7.46875 0.304688 "/></g></g></g><g fill="#095d62" fill-opacity="1"><g transform="translate(541.781883, 369.380481)"><g><path d="M 9.53125 -3.1875 C 9.078125 -2.125 8.136719 -1.214844 6.953125 -1.214844 C 5.738281 -1.214844 4.980469 -2.09375 4.980469 -3.796875 C 4.980469 -5.949219 6.164062 -6.984375 9.078125 -6.984375 L 9.53125 -6.984375 Z M 7.257812 -14.574219 C 5.28125 -14.574219 3.429688 -14.328125 2.703125 -13.511719 C 1.972656 -12.691406 1.941406 -11.535156 1.941406 -10.472656 L 3.613281 -10.472656 C 4.097656 -12.75 5.28125 -13.207031 6.648438 -13.207031 C 8.46875 -13.207031 9.53125 -11.992188 9.53125 -8.347656 L 9.078125 -8.347656 C 2.550781 -8.347656 0.878906 -6.679688 0.878906 -3.796875 C 0.878906 -1.367188 2.671875 0.304688 6.042969 0.304688 C 7.589844 0.304688 8.894531 -0.304688 9.683594 -1.367188 L 9.835938 -1.367188 L 10.898438 0 L 13.480469 0 L 13.480469 -8.195312 C 13.480469 -12.476562 11.234375 -14.574219 7.257812 -14.574219 Z M 7.257812 -14.574219 "/></g></g></g><g fill="#095d62" fill-opacity="1"><g transform="translate(556.836242, 369.380481)"><g><path d="M 1.941406 0 L 5.890625 0 L 5.890625 -16.089844 C 5.890625 -19.097656 5.28125 -20.039062 3.15625 -20.039062 L -0.484375 -20.039062 L -0.484375 -19.125 L -0.183594 -19.125 C 1.640625 -19.125 1.941406 -17.914062 1.941406 -16.089844 Z M 1.941406 0 "/></g></g></g><g fill="#095d62" fill-opacity="1"><g transform="translate(564.66693, 369.380481)"><g><path d="M 6.042969 -17.609375 C 6.042969 -18.824219 5.3125 -19.917969 3.765625 -19.917969 C 2.824219 -19.917969 2.09375 -19.277344 2.09375 -18.214844 C 2.09375 -17 2.824219 -15.910156 4.371094 -15.910156 C 5.3125 -15.910156 6.042969 -16.546875 6.042969 -17.609375 Z M 2.398438 0 L 6.34375 0 L 6.34375 -10.324219 C 6.34375 -13.328125 5.738281 -14.269531 3.613281 -14.269531 L -0.03125 -14.269531 L -0.03125 -13.359375 L 0.273438 -13.359375 C 2.09375 -13.359375 2.398438 -12.144531 2.398438 -10.324219 Z M 2.398438 0 "/></g></g></g><g fill="#095d62" fill-opacity="1"><g transform="translate(572.770788, 369.380481)"><g><path d="M 9.53125 -3.1875 C 9.078125 -2.125 8.136719 -1.214844 6.953125 -1.214844 C 5.738281 -1.214844 4.980469 -2.09375 4.980469 -3.796875 C 4.980469 -5.949219 6.164062 -6.984375 9.078125 -6.984375 L 9.53125 -6.984375 Z M 7.257812 -14.574219 C 5.28125 -14.574219 3.429688 -14.328125 2.703125 -13.511719 C 1.972656 -12.691406 1.941406 -11.535156 1.941406 -10.472656 L 3.613281 -10.472656 C 4.097656 -12.75 5.28125 -13.207031 6.648438 -13.207031 C 8.46875 -13.207031 9.53125 -11.992188 9.53125 -8.347656 L 9.078125 -8.347656 C 2.550781 -8.347656 0.878906 -6.679688 0.878906 -3.796875 C 0.878906 -1.367188 2.671875 0.304688 6.042969 0.304688 C 7.589844 0.304688 8.894531 -0.304688 9.683594 -1.367188 L 9.835938 -1.367188 L 10.898438 0 L 13.480469 0 L 13.480469 -8.195312 C 13.480469 -12.476562 11.234375 -14.574219 7.257812 -14.574219 Z M 7.257812 -14.574219 "/></g></g></g><g fill="#095d62" fill-opacity="1"><g transform="translate(587.825147, 369.380481)"><g><path d="M 8.863281 -13.207031 C 11.292969 -13.207031 12.8125 -11.839844 12.964844 -9.261719 L 13.875 -9.261719 C 13.875 -11.566406 13.875 -12.75 13.117188 -13.511719 C 12.355469 -14.269531 10.71875 -14.574219 8.410156 -14.574219 C 3.550781 -14.574219 1.125 -11.171875 1.125 -7.132812 C 1.125 -3.398438 3.15625 -0.273438 7.195312 0.210938 L 7.195312 2.335938 L 8.378906 2.335938 C 9.136719 2.335938 9.59375 2.761719 9.59375 3.339844 C 9.59375 3.855469 9.136719 4.3125 8.378906 4.3125 L 7.164062 4.3125 L 7.164062 5.707031 L 8.988281 5.707031 C 10.535156 5.707031 11.597656 4.765625 11.597656 3.339844 C 11.597656 1.882812 10.535156 0.972656 8.988281 0.972656 L 8.988281 0.273438 C 12.113281 0.121094 13.417969 -1.609375 14.300781 -2.882812 L 13.359375 -3.582031 C 12.296875 -2.15625 11.113281 -1.0625 9.015625 -1.0625 C 6.496094 -1.0625 5.222656 -3.097656 5.222656 -7.132812 C 5.222656 -11.261719 6.710938 -13.207031 8.863281 -13.207031 Z M 8.863281 -13.207031 "/></g></g></g><g fill="#095d62" fill-opacity="1"><g transform="translate(602.940205, 369.380481)"><g><path d="M 5.101562 -16.242188 C 5.101562 -16.851562 5.464844 -17.457031 6.164062 -17.457031 C 7.011719 -17.457031 7.621094 -16.242188 8.988281 -16.242188 C 10.199219 -16.242188 11.019531 -16.851562 11.019531 -19.277344 L 9.804688 -19.277344 C 9.804688 -18.671875 9.441406 -18.0625 8.742188 -18.0625 C 7.925781 -18.0625 7.316406 -19.277344 5.949219 -19.277344 C 4.734375 -19.277344 3.886719 -18.671875 3.886719 -16.242188 Z M 9.53125 -3.1875 C 9.078125 -2.125 8.136719 -1.214844 6.953125 -1.214844 C 5.738281 -1.214844 4.980469 -2.09375 4.980469 -3.796875 C 4.980469 -5.949219 6.164062 -6.984375 9.078125 -6.984375 L 9.53125 -6.984375 Z M 7.257812 -14.574219 C 5.28125 -14.574219 3.429688 -14.328125 2.703125 -13.511719 C 1.972656 -12.691406 1.941406 -11.535156 1.941406 -10.472656 L 3.613281 -10.472656 C 4.097656 -12.75 5.28125 -13.207031 6.648438 -13.207031 C 8.46875 -13.207031 9.53125 -11.992188 9.53125 -8.347656 L 9.078125 -8.347656 C 2.550781 -8.347656 0.878906 -6.679688 0.878906 -3.796875 C 0.878906 -1.367188 2.671875 0.304688 6.042969 0.304688 C 7.589844 0.304688 8.894531 -0.304688 9.683594 -1.367188 L 9.835938 -1.367188 L 10.898438 0 L 13.480469 0 L 13.480469 -8.195312 C 13.480469 -12.476562 11.234375 -14.574219 7.257812 -14.574219 Z M 7.257812 -14.574219 "/></g></g></g><g fill="#095d62" fill-opacity="1"><g transform="translate(617.994564, 369.380481)"><g><path d="M 11.566406 -7.132812 C 11.566406 -3.644531 10.503906 -1.0625 8.378906 -1.0625 C 6.253906 -1.0625 5.191406 -3.644531 5.191406 -7.132812 C 5.191406 -10.625 6.253906 -13.207031 8.378906 -13.207031 C 10.503906 -13.207031 11.566406 -10.625 11.566406 -7.132812 Z M 1.09375 -7.132812 C 1.09375 -2.976562 3.855469 0.304688 8.378906 0.304688 C 12.902344 0.304688 15.664062 -2.976562 15.664062 -7.132812 C 15.664062 -11.292969 12.902344 -14.574219 8.378906 -14.574219 C 3.855469 -14.574219 1.09375 -11.292969 1.09375 -7.132812 Z M 1.09375 -7.132812 "/></g></g></g><g fill="#095d62" fill-opacity="1"><g transform="translate(634.748599, 369.380481)"><g/></g></g><g fill="#095d62" fill-opacity="1"><g transform="translate(642.336478, 369.380481)"><g><path d="M 0.457031 -20.039062 L 0.457031 -19.125 L 0.757812 -19.125 C 2.582031 -19.125 2.882812 -17.914062 2.882812 -16.089844 L 2.882812 0 L 6.832031 0 L 6.832031 -9.5625 L 13.511719 -9.5625 L 13.511719 -10.929688 L 6.832031 -10.929688 L 6.832031 -18.671875 L 11.050781 -18.671875 C 13.480469 -18.671875 14.847656 -17.667969 14.847656 -15.027344 L 15.757812 -15.027344 L 15.757812 -17.609375 C 15.757812 -18.824219 15.269531 -20.039062 13.175781 -20.039062 Z M 0.457031 -20.039062 "/></g></g></g><g fill="#095d62" fill-opacity="1"><g transform="translate(658.695943, 369.380481)"><g><path d="M 2.398438 0 L 6.34375 0 L 6.34375 -10.324219 C 6.34375 -13.328125 5.738281 -14.269531 3.613281 -14.269531 L -0.03125 -14.269531 L -0.03125 -13.359375 L 0.273438 -13.359375 C 2.09375 -13.359375 2.398438 -12.144531 2.398438 -10.324219 Z M 7.773438 -20.1875 L 4.160156 -20.1875 L 2.882812 -15.9375 L 4.554688 -15.9375 Z M 7.773438 -20.1875 "/></g></g></g><g fill="#095d62" fill-opacity="1"><g transform="translate(666.799802, 369.380481)"><g><path d="M 6.34375 -1.0625 C 3.917969 -1.0625 2.730469 -2.609375 2.398438 -4.554688 L 1.335938 -4.554688 C 1.335938 -3.003906 1.335938 -1.640625 2.066406 -0.941406 C 2.882812 -0.183594 4.433594 0.304688 6.953125 0.304688 C 10.566406 0.304688 13.175781 -1.09375 13.175781 -3.734375 C 13.175781 -5.890625 11.75 -6.953125 8.957031 -8.136719 L 7.132812 -8.894531 C 5.796875 -9.472656 4.980469 -10.050781 4.980469 -11.140625 C 4.980469 -12.324219 5.738281 -13.207031 7.558594 -13.207031 C 9.988281 -13.207031 11.171875 -11.660156 11.507812 -9.714844 L 12.570312 -9.714844 C 12.570312 -11.261719 12.570312 -12.628906 11.839844 -13.328125 C 11.019531 -14.085938 9.472656 -14.574219 6.953125 -14.574219 C 3.613281 -14.574219 1.183594 -13.175781 1.183594 -10.535156 C 1.183594 -8.5625 2.640625 -7.316406 5.070312 -6.253906 L 6.648438 -5.585938 C 8.226562 -4.917969 9.382812 -4.3125 9.382812 -3.128906 C 9.382812 -1.941406 8.621094 -1.0625 6.34375 -1.0625 Z M 6.34375 -1.0625 "/></g></g></g><g fill="#095d62" fill-opacity="1"><g transform="translate(681.004311, 369.380481)"><g><path d="M 6.042969 -17.609375 C 6.042969 -18.824219 5.3125 -19.917969 3.765625 -19.917969 C 2.824219 -19.917969 2.09375 -19.277344 2.09375 -18.214844 C 2.09375 -17 2.824219 -15.910156 4.371094 -15.910156 C 5.3125 -15.910156 6.042969 -16.546875 6.042969 -17.609375 Z M 2.398438 0 L 6.34375 0 L 6.34375 -10.324219 C 6.34375 -13.328125 5.738281 -14.269531 3.613281 -14.269531 L -0.03125 -14.269531 L -0.03125 -13.359375 L 0.273438 -13.359375 C 2.09375 -13.359375 2.398438 -12.144531 2.398438 -10.324219 Z M 2.398438 0 "/></g></g></g><g fill="#095d62" fill-opacity="1"><g transform="translate(689.108169, 369.380481)"><g><path d="M 8.835938 -13.207031 C 11.261719 -13.207031 12.78125 -11.839844 12.933594 -9.261719 L 13.84375 -9.261719 C 13.84375 -11.566406 13.84375 -12.75 13.085938 -13.511719 C 12.324219 -14.269531 10.6875 -14.574219 8.378906 -14.574219 C 3.523438 -14.574219 1.09375 -11.171875 1.09375 -7.132812 C 1.09375 -3.097656 3.523438 0.304688 8.378906 0.304688 C 11.871094 0.304688 13.390625 -1.519531 14.269531 -2.882812 L 13.328125 -3.582031 C 12.265625 -2.15625 11.082031 -1.0625 8.988281 -1.0625 C 6.464844 -1.0625 5.191406 -3.097656 5.191406 -7.132812 C 5.191406 -11.261719 6.679688 -13.207031 8.835938 -13.207031 Z M 8.835938 -13.207031 "/></g></g></g><g fill="#095d62" fill-opacity="1"><g transform="translate(704.162517, 369.380481)"><g><path d="M 9.53125 -3.1875 C 9.078125 -2.125 8.136719 -1.214844 6.953125 -1.214844 C 5.738281 -1.214844 4.980469 -2.09375 4.980469 -3.796875 C 4.980469 -5.949219 6.164062 -6.984375 9.078125 -6.984375 L 9.53125 -6.984375 Z M 7.257812 -14.574219 C 5.28125 -14.574219 3.429688 -14.328125 2.703125 -13.511719 C 1.972656 -12.691406 1.941406 -11.535156 1.941406 -10.472656 L 3.613281 -10.472656 C 4.097656 -12.75 5.28125 -13.207031 6.648438 -13.207031 C 8.46875 -13.207031 9.53125 -11.992188 9.53125 -8.347656 L 9.078125 -8.347656 C 2.550781 -8.347656 0.878906 -6.679688 0.878906 -3.796875 C 0.878906 -1.367188 2.671875 0.304688 6.042969 0.304688 C 7.589844 0.304688 8.894531 -0.304688 9.683594 -1.367188 L 9.835938 -1.367188 L 10.898438 0 L 13.480469 0 L 13.480469 -8.195312 C 13.480469 -12.476562 11.234375 -14.574219 7.257812 -14.574219 Z M 7.257812 -14.574219 "/></g></g></g></svg>